mtllib pref_env_windsock_01.mtl
o pref_env_windsock_01
usemtl pref_env_windsock_01_mat
v 0.2200 2.3000 0.0000
v 0.1905 2.3000 0.1100
v 0.1100 2.3000 0.1905
v 0.0000 2.3000 0.2200
v -0.1100 2.3000 0.1905
v -0.1905 2.3000 0.1100
v -0.2200 2.3000 0.0000
v -0.1905 2.3000 -0.1100
v -0.1100 2.3000 -0.1905
v -0.0000 2.3000 -0.2200
v 0.1100 2.3000 -0.1905
v 0.1905 2.3000 -0.1100
v 0.2200 3.2000 0.0000
v 0.1905 3.2000 0.1100
v 0.1100 3.2000 0.1905
v 0.0000 3.2000 0.2200
v -0.1100 3.2000 0.1905
v -0.1905 3.2000 0.1100
v -0.2200 3.2000 0.0000
v -0.1905 3.2000 -0.1100
v -0.1100 3.2000 -0.1905
v -0.0000 3.2000 -0.2200
v 0.1100 3.2000 -0.1905
v 0.1905 3.2000 -0.1100
f 1 2 14
f 1 14 13
f 2 3 15
f 2 15 14
f 3 4 16
f 3 16 15
f 4 5 17
f 4 17 16
f 5 6 18
f 5 18 17
f 6 7 19
f 6 19 18
f 7 8 20
f 7 20 19
f 8 9 21
f 8 21 20
f 9 10 22
f 9 22 21
f 10 11 23
f 10 23 22
f 11 12 24
f 11 24 23
f 12 1 13
f 12 13 24
v 0.0400 0.0000 0.0000
v 0.0283 0.0000 0.0283
v 0.0000 0.0000 0.0400
v -0.0283 0.0000 0.0283
v -0.0400 0.0000 0.0000
v -0.0283 0.0000 -0.0283
v -0.0000 0.0000 -0.0400
v 0.0283 0.0000 -0.0283
v 0.0400 2.5000 0.0000
v 0.0283 2.5000 0.0283
v 0.0000 2.5000 0.0400
v -0.0283 2.5000 0.0283
v -0.0400 2.5000 0.0000
v -0.0283 2.5000 -0.0283
v -0.0000 2.5000 -0.0400
v 0.0283 2.5000 -0.0283
f 25 26 34
f 25 34 33
f 26 27 35
f 26 35 34
f 27 28 36
f 27 36 35
f 28 29 37
f 28 37 36
f 29 30 38
f 29 38 37
f 30 31 39
f 30 39 38
f 31 32 40
f 31 40 39
f 32 25 33
f 32 33 40
