mtllib pref_ppe_scba_mask_01.mtl
o pref_ppe_scba_mask_01
usemtl pref_ppe_scba_mask_01_mat
v 0.0700 0.0200 0.1600
v 0.0606 0.0200 0.1950
v 0.0350 0.0200 0.2206
v 0.0000 0.0200 0.2300
v -0.0350 0.0200 0.2206
v -0.0606 0.0200 0.1950
v -0.0700 0.0200 0.1600
v -0.0606 0.0200 0.1250
v -0.0350 0.0200 0.0994
v -0.0000 0.0200 0.0900
v 0.0350 0.0200 0.0994
v 0.0606 0.0200 0.1250
v 0.0700 0.1600 0.1600
v 0.0606 0.1600 0.1950
v 0.0350 0.1600 0.2206
v 0.0000 0.1600 0.2300
v -0.0350 0.1600 0.2206
v -0.0606 0.1600 0.1950
v -0.0700 0.1600 0.1600
v -0.0606 0.1600 0.1250
v -0.0350 0.1600 0.0994
v -0.0000 0.1600 0.0900
v 0.0350 0.1600 0.0994
v 0.0606 0.1600 0.1250
f 1 2 14
f 1 14 13
f 2 3 15
f 2 15 14
f 3 4 16
f 3 16 15
f 4 5 17
f 4 17 16
f 5 6 18
f 5 18 17
f 6 7 19
f 6 19 18
f 7 8 20
f 7 20 19
f 8 9 21
f 8 21 20
f 9 10 22
f 9 22 21
f 10 11 23
f 10 23 22
f 11 12 24
f 11 24 23
f 12 1 13
f 12 13 24
v -0.1500 0.0000 -0.1500
v 0.1500 0.0000 -0.1500
v 0.1500 0.2800 -0.1500
v -0.1500 0.2800 -0.1500
v -0.1500 0.0000 0.1500
v 0.1500 0.0000 0.1500
v 0.1500 0.2800 0.1500
v -0.1500 0.2800 0.1500
f 25 26 27
f 25 27 28
f 30 29 32
f 30 32 31
f 29 25 28
f 29 28 32
f 26 30 31
f 26 31 27
f 28 27 31
f 28 31 32
f 29 30 26
f 29 26 25
