mtllib pref_eq_alarm_switch_01.mtl
o pref_eq_alarm_switch_01
usemtl pref_eq_alarm_switch_01_mat
v 0.0400 0.1000 0.0500
v 0.0324 0.1000 0.0735
v 0.0124 0.1000 0.0880
v -0.0124 0.1000 0.0880
v -0.0324 0.1000 0.0735
v -0.0400 0.1000 0.0500
v -0.0324 0.1000 0.0265
v -0.0124 0.1000 0.0120
v 0.0124 0.1000 0.0120
v 0.0324 0.1000 0.0265
v 0.0400 0.1300 0.0500
v 0.0324 0.1300 0.0735
v 0.0124 0.1300 0.0880
v -0.0124 0.1300 0.0880
v -0.0324 0.1300 0.0735
v -0.0400 0.1300 0.0500
v -0.0324 0.1300 0.0265
v -0.0124 0.1300 0.0120
v 0.0124 0.1300 0.0120
v 0.0324 0.1300 0.0265
f 1 2 12
f 1 12 11
f 2 3 13
f 2 13 12
f 3 4 14
f 3 14 13
f 4 5 15
f 4 15 14
f 5 6 16
f 5 16 15
f 6 7 17
f 6 17 16
f 7 8 18
f 7 18 17
f 8 9 19
f 8 19 18
f 9 10 20
f 9 20 19
f 10 1 11
f 10 11 20
v -0.1200 0.0000 -0.0500
v 0.1200 0.0000 -0.0500
v 0.1200 0.2400 -0.0500
v -0.1200 0.2400 -0.0500
v -0.1200 0.0000 0.0500
v 0.1200 0.0000 0.0500
v 0.1200 0.2400 0.0500
v -0.1200 0.2400 0.0500
f 21 22 23
f 21 23 24
f 26 25 28
f 26 28 27
f 25 21 24
f 25 24 28
f 22 26 27
f 22 27 23
f 24 23 27
f 24 27 28
f 25 26 22
f 25 22 21
