mtllib pref_env_refuge_door_01.mtl
o pref_env_refuge_door_01
usemtl pref_env_refuge_door_01_mat
v -0.7000 0.0000 -0.1000
v 0.7000 0.0000 -0.1000
v 0.7000 2.2000 -0.1000
v -0.7000 2.2000 -0.1000
v -0.7000 0.0000 -0.0800
v 0.7000 0.0000 -0.0800
v 0.7000 2.2000 -0.0800
v -0.7000 2.2000 -0.0800
f 1 2 3
f 1 3 4
f 6 5 8
f 6 8 7
f 5 1 4
f 5 4 8
f 2 6 7
f 2 7 3
f 4 3 7
f 4 7 8
f 5 6 2
f 5 2 1
v 0.2000 1.1000 0.0800
v 0.1732 1.1000 0.1800
v 0.1000 1.1000 0.2532
v 0.0000 1.1000 0.2800
v -0.1000 1.1000 0.2532
v -0.1732 1.1000 0.1800
v -0.2000 1.1000 0.0800
v -0.1732 1.1000 -0.0200
v -0.1000 1.1000 -0.0932
v -0.0000 1.1000 -0.1200
v 0.1000 1.1000 -0.0932
v 0.1732 1.1000 -0.0200
v 0.2000 1.1600 0.0800
v 0.1732 1.1600 0.1800
v 0.1000 1.1600 0.2532
v 0.0000 1.1600 0.2800
v -0.1000 1.1600 0.2532
v -0.1732 1.1600 0.1800
v -0.2000 1.1600 0.0800
v -0.1732 1.1600 -0.0200
v -0.1000 1.1600 -0.0932
v -0.0000 1.1600 -0.1200
v 0.1000 1.1600 -0.0932
v 0.1732 1.1600 -0.0200
f 9 10 22
f 9 22 21
f 10 11 23
f 10 23 22
f 11 12 24
f 11 24 23
f 12 13 25
f 12 25 24
f 13 14 26
f 13 26 25
f 14 15 27
f 14 27 26
f 15 16 28
f 15 28 27
f 16 17 29
f 16 29 28
f 17 18 30
f 17 30 29
f 18 19 31
f 18 31 30
f 19 20 32
f 19 32 31
f 20 9 21
f 20 21 32
v -0.6000 0.0000 -0.0800
v 0.6000 0.0000 -0.0800
v 0.6000 2.1000 -0.0800
v -0.6000 2.1000 -0.0800
v -0.6000 0.0000 0.0800
v 0.6000 0.0000 0.0800
v 0.6000 2.1000 0.0800
v -0.6000 2.1000 0.0800
f 33 34 35
f 33 35 36
f 38 37 40
f 38 40 39
f 37 33 36
f 37 36 40
f 34 38 39
f 34 39 35
f 36 35 39
f 36 39 40
f 37 38 34
f 37 34 33
