mtllib pref_env_pipe_flange_01.mtl
o pref_env_pipe_flange_01
usemtl pref_env_pipe_flange_01_mat
v 0.2800 0.9000 0.0000
v 0.2587 0.9000 0.1072
v 0.1980 0.9000 0.1980
v 0.1072 0.9000 0.2587
v 0.0000 0.9000 0.2800
v -0.1072 0.9000 0.2587
v -0.1980 0.9000 0.1980
v -0.2587 0.9000 0.1072
v -0.2800 0.9000 0.0000
v -0.2587 0.9000 -0.1072
v -0.1980 0.9000 -0.1980
v -0.1072 0.9000 -0.2587
v -0.0000 0.9000 -0.2800
v 0.1072 0.9000 -0.2587
v 0.1980 0.9000 -0.1980
v 0.2587 0.9000 -0.1072
v 0.2800 1.0000 0.0000
v 0.2587 1.0000 0.1072
v 0.1980 1.0000 0.1980
v 0.1072 1.0000 0.2587
v 0.0000 1.0000 0.2800
v -0.1072 1.0000 0.2587
v -0.1980 1.0000 0.1980
v -0.2587 1.0000 0.1072
v -0.2800 1.0000 0.0000
v -0.2587 1.0000 -0.1072
v -0.1980 1.0000 -0.1980
v -0.1072 1.0000 -0.2587
v -0.0000 1.0000 -0.2800
v 0.1072 1.0000 -0.2587
v 0.1980 1.0000 -0.1980
v 0.2587 1.0000 -0.1072
f 1 2 18
f 1 18 17
f 2 3 19
f 2 19 18
f 3 4 20
f 3 20 19
f 4 5 21
f 4 21 20
f 5 6 22
f 5 22 21
f 6 7 23
f 6 23 22
f 7 8 24
f 7 24 23
f 8 9 25
f 8 25 24
f 9 10 26
f 9 26 25
f 10 11 27
f 10 27 26
f 11 12 28
f 11 28 27
f 12 13 29
f 12 29 28
f 13 14 30
f 13 30 29
f 14 15 31
f 14 31 30
f 15 16 32
f 15 32 31
f 16 1 17
f 16 17 32
v 0.1500 0.0000 0.0000
v 0.1386 0.0000 0.0574
v 0.1061 0.0000 0.1061
v 0.0574 0.0000 0.1386
v 0.0000 0.0000 0.1500
v -0.0574 0.0000 0.1386
v -0.1061 0.0000 0.1061
v -0.1386 0.0000 0.0574
v -0.1500 0.0000 0.0000
v -0.1386 0.0000 -0.0574
v -0.1061 0.0000 -0.1061
v -0.0574 0.0000 -0.1386
v -0.0000 0.0000 -0.1500
v 0.0574 0.0000 -0.1386
v 0.1061 0.0000 -0.1061
v 0.1386 0.0000 -0.0574
v 0.1500 2.0000 0.0000
v 0.1386 2.0000 0.0574
v 0.1061 2.0000 0.1061
v 0.0574 2.0000 0.1386
v 0.0000 2.0000 0.1500
v -0.0574 2.0000 0.1386
v -0.1061 2.0000 0.1061
v -0.1386 2.0000 0.0574
v -0.1500 2.0000 0.0000
v -0.1386 2.0000 -0.0574
v -0.1061 2.0000 -0.1061
v -0.0574 2.0000 -0.1386
v -0.0000 2.0000 -0.1500
v 0.0574 2.0000 -0.1386
v 0.1061 2.0000 -0.1061
v 0.1386 2.0000 -0.0574
f 33 34 50
f 33 50 49
f 34 35 51
f 34 51 50
f 35 36 52
f 35 52 51
f 36 37 53
f 36 53 52
f 37 38 54
f 37 54 53
f 38 39 55
f 38 55 54
f 39 40 56
f 39 56 55
f 40 41 57
f 40 57 56
f 41 42 58
f 41 58 57
f 42 43 59
f 42 59 58
f 43 44 60
f 43 60 59
f 44 45 61
f 44 61 60
f 45 46 62
f 45 62 61
f 46 47 63
f 46 63 62
f 47 48 64
f 47 64 63
f 48 33 49
f 48 49 64
